<svg height="512pt" viewBox="-40 0 512 512" width="512pt" xmlns="http://www.w3.org/2000/svg"><g fill="#ffb954"><path d="m86.828125 130.804688c0 16.789062 6.648437 32.015624 17.449219 43.21875 17.9375-10.941407 29.921875-30.671876 29.921875-53.21875 0-16.792969-6.648438-32.019532-17.445313-43.21875-17.9375 10.9375-29.925781 30.667968-29.925781 53.21875zm0 0"/><path d="m125.621094 190.183594c-11.746094 11.746094-17.757813 27.039062-18.058594 42.429687 20.554688 5.417969 43.351562.089844 59.464844-16.023437 11.742187-11.742188 17.753906-27.039063 18.054687-42.429688-20.550781-5.417968-43.347656-.089844-59.460937 16.023438zm0 0"/><path d="m83.214844 169.289062c-15.054688-6.949218-32.328125-7.519531-47.746094-1.699218-7.683594 20.355468-4.234375 43.949218 10.351562 61.394531 15.054688 6.949219 32.328126 7.519531 47.746094 1.703125 7.679688-20.359375 4.234375-43.953125-10.351562-61.398438zm0 0"/><path d="m127.621094 272.265625c-11.871094 11.867187-17.878906 27.363281-18.0625 42.917969 20.019531 4.574218 41.875-.917969 57.46875-16.511719 11.867187-11.871094 17.878906-27.363281 18.0625-42.917969-20.023438-4.574218-41.875.917969-57.46875 16.511719zm0 0"/><path d="m84.234375 252.613281c-15.175781-7.179687-32.667969-7.828125-48.265625-1.945312-7.5 19.878906-4.398438 42.84375 9.332031 60.152343 15.171875 7.183594 32.667969 7.832032 48.265625 1.945313 7.5-19.878906 4.398438-42.84375-9.332031-60.152344zm0 0"/><path d="m125.621094 355.34375c-11.492188 11.492188-17.492188 26.382812-18.027344 41.4375 20.542969 5.40625 43.328125.074219 59.433594-16.03125 11.492187-11.492188 17.492187-26.382812 18.027344-41.433594-20.542969-5.410156-43.328126-.078125-59.433594 16.027344zm0 0"/><path d="m81.808594 331.828125c-14.425782-5.875-30.625-6.070313-45.171875-.582031-7.921875 21-4.007813 45.4375 11.753906 63.019531 14.429687 5.875 30.628906 6.070313 45.175781.582031 7.921875-21 4.007813-45.4375-11.757812-63.019531zm0 0"/><path d="m127.621094 437.425781c-11.617188 11.613281-17.628906 26.703125-18.050782 41.917969 20.019532 4.570312 41.867188-.921875 57.457032-16.515625 11.613281-11.613281 17.628906-26.699219 18.050781-41.917969-20.019531-4.570312-41.867187.921875-57.457031 16.515625zm0 0"/><path d="m87.808594 421.777344c-15.953125-8.875-35.003906-10.136719-51.839844-3.78125-6.796875 18.015625-4.878906 38.566406 5.757812 55.148437 15.953126 8.871094 35.003907 10.132813 51.839844 3.78125 6.796875-18.015625 4.882813-38.566406-5.757812-55.148437zm0 0"/><path d="m323.828125 133.804688c0 16.789062 6.648437 32.015624 17.449219 43.21875 17.9375-10.941407 29.921875-30.671876 29.921875-53.21875 0-16.792969-6.648438-32.019532-17.445313-43.21875-17.9375 10.9375-29.925781 30.667968-29.925781 53.21875zm0 0"/><path d="m362.621094 193.183594c-11.746094 11.746094-17.757813 27.039062-18.058594 42.429687 20.554688 5.417969 43.351562.089844 59.464844-16.023437 11.742187-11.742188 17.753906-27.039063 18.054687-42.429688-20.550781-5.417968-43.347656-.089844-59.460937 16.023438zm0 0"/><path d="m320.214844 172.289062c-15.054688-6.949218-32.328125-7.519531-47.746094-1.699218-7.683594 20.355468-4.234375 43.949218 10.351562 61.394531 15.054688 6.949219 32.328126 7.519531 47.746094 1.703125 7.679688-20.359375 4.234375-43.953125-10.351562-61.398438zm0 0"/><path d="m364.621094 275.265625c-11.871094 11.867187-17.878906 27.363281-18.0625 42.917969 20.019531 4.574218 41.875-.917969 57.46875-16.511719 11.867187-11.871094 17.878906-27.363281 18.0625-42.917969-20.023438-4.574218-41.875.917969-57.46875 16.511719zm0 0"/><path d="m321.234375 255.613281c-15.175781-7.179687-32.667969-7.828125-48.265625-1.945312-7.5 19.878906-4.398438 42.84375 9.332031 60.152343 15.171875 7.183594 32.667969 7.832032 48.265625 1.945313 7.5-19.878906 4.398438-42.84375-9.332031-60.152344zm0 0"/><path d="m362.621094 358.34375c-11.492188 11.492188-17.492188 26.382812-18.027344 41.4375 20.542969 5.40625 43.328125.074219 59.433594-16.03125 11.492187-11.492188 17.492187-26.382812 18.027344-41.433594-20.542969-5.410156-43.328126-.078125-59.433594 16.027344zm0 0"/><path d="m318.808594 334.828125c-14.425782-5.875-30.625-6.070313-45.171875-.582031-7.921875 21-4.007813 45.4375 11.753906 63.019531 14.429687 5.875 30.628906 6.070313 45.175781.582031 7.921875-21 4.007813-45.4375-11.757812-63.019531zm0 0"/><path d="m364.621094 440.425781c-11.617188 11.613281-17.628906 26.703125-18.050782 41.917969 20.019532 4.570312 41.867188-.921875 57.457032-16.515625 11.613281-11.613281 17.628906-26.699219 18.050781-41.917969-20.019531-4.570312-41.867187.921875-57.457031 16.515625zm0 0"/><path d="m324.808594 424.777344c-15.953125-8.875-35.003906-10.136719-51.839844-3.78125-6.796875 18.015625-4.878906 38.566406 5.757812 55.148437 15.953126 8.871094 35.003907 10.132813 51.839844 3.78125 6.796875-18.015625 4.882813-38.566406-5.757812-55.148437zm0 0"/></g><path d="m190.480469 147.558594c-1.015625-2.6875-3.136719-4.8125-5.828125-5.828125-13.96875-5.269531-28.933594-5.933594-42.875-2.429688 1.582031-5.957031 2.421875-12.164062 2.421875-18.496093 0-28.351563-16.707031-54.226563-42.5625-65.917969-2.621094-1.183594-5.621094-1.183594-8.242188 0-25.855469 11.691406-42.5625 37.566406-42.5625 65.917969 0 6.328124.835938 12.53125 2.417969 18.480468-13.925781-3.484375-28.863281-2.816406-42.8125 2.445313-2.6875 1.015625-4.808594 3.136719-5.824219 5.828125-9.546875 25.300781-3.984375 53.859375 14.097657 73.699218-2.785157.683594-5.546876 1.523438-8.273438 2.554688-2.6875 1.011719-4.8125 3.136719-5.828125 5.824219-9.546875 25.304687-3.980469 53.859375 14.101563 73.703125-2.785157.679687-5.550782 1.523437-8.273438 2.550781-2.6875 1.015625-4.8125 3.136719-5.828125 5.828125-9.546875 25.300781-3.980469 53.859375 14.101563 73.703125-2.785157.679687-5.550782 1.523437-8.273438 2.550781-2.691406 1.011719-4.8125 3.136719-5.828125 5.824219-9.9375 26.339844-3.507813 56.214844 16.382813 76.105469 13.679687 13.679687 32.078124 20.988281 50.804687 20.988281 5.246094 0 10.515625-.578125 15.71875-1.746094v12.855469c0 5.523438 4.476563 10 10 10 5.519531 0 10-4.476562 10-10v-12.863281c5.21875 1.175781 10.507813 1.757812 15.773437 1.757812 18.726563 0 37.128907-7.316406 50.808594-20.992187 19.886719-19.890625 26.316406-49.761719 16.378906-76.105469-1.015624-2.6875-3.136718-4.8125-5.828124-5.824219-2.722657-1.027344-5.488282-1.871094-8.273438-2.550781 18.085938-19.84375 23.648438-48.398437 14.101562-73.703125-1.015624-2.6875-3.136718-4.8125-5.828124-5.828125-2.722657-1.027344-5.488282-1.871094-8.273438-2.550781 18.085938-19.839844 23.648438-48.398438 14.101562-73.703125-1.015624-2.6875-3.136718-4.8125-5.828124-5.824219-2.722657-1.027344-5.488282-1.871094-8.273438-2.550781 18.085938-19.84375 23.648438-48.398438 14.105469-73.703125zm-17.277344 11.449218c4.96875 17.863282.003906 37.261719-13.25 50.511719-5.566406 5.566407-12.21875 9.664063-19.386719 12.183594-1.472656.398437-2.933594.839844-4.378906 1.332031-8.667969 2.210938-17.894531 2.191406-26.746094-.269531-4.96875-17.863281-.003906-37.257813 13.25-50.511719 13.25-13.25 32.648438-18.21875 50.511719-13.246094zm-26.832031 81.832032c8.695312-2.234375 17.953125-2.222656 26.832031.25 4.96875 17.859375.003906 37.257812-13.25 50.511718-5.566406 5.566407-12.21875 9.664063-19.386719 12.183594-1.472656.398438-2.933594.839844-4.378906 1.328125-8.667969 2.214844-17.894531 2.195313-26.746094-.265625-4.96875-17.863281-.003906-37.261718 13.25-50.511718 5.597656-5.601563 12.296875-9.714844 19.507813-12.230469 1.402343-.378907 2.796875-.800781 4.171875-1.265625zm.007812 82.078125c8.691406-2.234375 17.945313-2.21875 26.824219.25 4.96875 17.863281.003906 37.261719-13.25 50.511719-5.566406 5.566406-12.222656 9.667968-19.390625 12.1875-1.46875.394531-2.929688.835937-4.371094 1.328124-8.671875 2.210938-17.894531 2.191407-26.746094-.269531-4.972656-17.859375-.003906-37.261719 13.246094-50.511719 5.597656-5.597656 12.292969-9.710937 19.507813-12.226562 1.402343-.378906 2.796875-.800781 4.179687-1.269531zm-91.871094 62.941406c-7.164062-2.519531-13.8125-6.617187-19.371093-12.179687-13.253907-13.25-18.21875-32.648438-13.25-50.511719 8.875-2.46875 18.128906-2.484375 26.820312-.25 1.382813.46875 2.78125.890625 4.1875 1.269531 7.210938 2.515625 13.90625 6.628906 19.503907 12.226562 9.503906 9.503907 14.746093 22.171876 15.117187 35.164063v2.75c-.105469 4.21875-.714844 8.449219-1.871094 12.597656-8.84375 2.460938-18.0625 2.484375-26.726562.273438-1.457031-.492188-2.925781-.9375-4.410157-1.339844zm.003907-82.078125c-7.164063-2.519531-13.8125-6.617188-19.375-12.183594-13.25-13.25-18.21875-32.648437-13.246094-50.511718 8.875-2.46875 18.128906-2.480469 26.824219-.246094 1.378906.464844 2.773437.886718 4.179687 1.269531 7.210938 2.515625 13.910157 6.628906 19.507813 12.226563 9.503906 9.503906 14.742187 22.171874 15.113281 35.164062v2.75c-.101563 4.21875-.714844 8.449219-1.867187 12.597656-8.84375 2.460938-18.066407 2.480469-26.734376.269532-1.453124-.492188-2.921874-.9375-4.402343-1.335938zm16.320312-182.976562c0-18.964844 10.335938-36.398438 26.683594-45.605469 16.347656 9.207031 26.683594 26.640625 26.683594 45.605469 0 18.960937-10.335938 36.394531-26.683594 45.601562-3.851563-2.167969-7.363281-4.796875-10.488281-7.792969-.164063-.164062-.320313-.335937-.484375-.5-.269531-.269531-.546875-.523437-.820313-.789062-9.359375-9.613281-14.890625-22.65625-14.890625-36.519531zm-48.941406 38.203124c17.539063-4.878906 36.554687-.171874 49.78125 12.546876.371094.375.746094.742187 1.125 1.109374 9.25 9.457032 14.355469 21.945313 14.71875 34.757813v2.75c-.101563 4.214844-.714844 8.445313-1.867187 12.59375-8.847657 2.460937-18.066407 2.484375-26.734376.273437-1.453124-.492187-2.921874-.9375-4.402343-1.339843-7.160157-2.519531-13.8125-6.617188-19.375-12.179688-13.253907-13.25-18.21875-32.648437-13.246094-50.511719zm63.753906 310c-17.859375 4.972657-37.257812.003907-50.507812-13.246093-13.253907-13.253907-18.21875-32.652344-13.25-50.515625 8.878906-2.46875 18.136719-2.480469 26.832031-.246094 1.375.464844 2.765625.886719 4.167969 1.265625 7.214843 2.515625 13.914062 6.628906 19.511719 12.230469 9.507812 9.503906 14.746093 22.171875 15.117187 35.167968v2.734376c-.101563 4.222656-.714844 8.457031-1.871094 12.609374zm74.308594-13.246093c-13.25 13.25-32.644531 18.214843-50.507813 13.246093-4.972656-17.863281-.003906-37.261718 13.246094-50.511718 5.597656-5.601563 12.292969-9.710938 19.507813-12.226563 1.402343-.382812 2.796875-.800781 4.175781-1.269531 8.691406-2.234375 17.949219-2.222656 26.828125.25 4.96875 17.859375.003906 37.257812-13.25 50.511719zm0 0"/><path d="m427.644531 229.636719c-1.015625-2.6875-3.136719-4.8125-5.828125-5.824219-2.722656-1.027344-5.488281-1.871094-8.273437-2.550781 18.082031-19.84375 23.648437-48.398438 14.101562-73.703125-1.015625-2.6875-3.136719-4.8125-5.828125-5.828125-13.96875-5.269531-28.933594-5.933594-42.875-2.429688 1.585938-5.957031 2.421875-12.164062 2.421875-18.496093 0-28.351563-16.707031-54.226563-42.5625-65.914063-2.617187-1.1875-5.621093-1.1875-8.238281 0-25.859375 11.6875-42.566406 37.5625-42.566406 65.914063 0 6.328124.839844 12.53125 2.417968 18.480468-13.921874-3.484375-28.859374-2.816406-42.808593 2.445313-2.6875 1.015625-4.8125 3.140625-5.828125 5.828125-9.546875 25.304687-3.980469 53.859375 14.101562 73.703125-2.785156.679687-5.550781 1.523437-8.273437 2.550781-2.691407 1.015625-4.8125 3.136719-5.828125 5.824219-9.546875 25.304687-3.980469 53.863281 14.101562 73.703125-2.785156.679687-5.550781 1.523437-8.273437 2.550781-2.691407 1.015625-4.8125 3.140625-5.828125 5.828125-9.546875 25.304688-3.980469 53.859375 14.101562 73.703125-2.785156.679687-5.550781 1.523437-8.277344 2.550781-2.6875 1.015625-4.808593 3.136719-5.824218 5.824219-9.9375 26.34375-3.507813 56.214844 16.378906 76.105469 13.679688 13.679687 32.078125 20.992187 50.808594 20.992187 5.246094 0 10.515625-.578125 15.714844-1.75v12.855469c0 5.523438 4.476562 10 10 10 5.523437 0 10-4.476562 10-10v-12.863281c5.21875 1.175781 10.511718 1.757812 15.777343 1.757812 18.726563 0 37.125-7.316406 50.804688-20.992187 19.890625-19.890625 26.320312-49.765625 16.382812-76.105469-1.015625-2.6875-3.136719-4.8125-5.828125-5.824219-2.722656-1.027344-5.488281-1.871094-8.273437-2.550781 18.082031-19.84375 23.648437-48.398437 14.101562-73.703125-1.015625-2.6875-3.136719-4.8125-5.828125-5.828125-2.726562-1.027344-5.488281-1.871094-8.273437-2.550781 18.082031-19.84375 23.648437-48.398438 14.101562-73.703125zm-54.292969 75.476562c-8.667968 2.214844-17.890624 2.195313-26.742187-.265625-4.96875-17.863281-.003906-37.261718 13.246094-50.511718 5.597656-5.601563 12.296875-9.714844 19.511719-12.230469 1.402343-.378907 2.792968-.800781 4.171874-1.265625 8.695313-2.238282 17.949219-2.222656 26.828126.246094 4.972656 17.863281.003906 37.261718-13.246094 50.511718-5.566406 5.566406-12.222656 9.667969-19.386719 12.183594-1.472656.402344-2.933594.84375-4.382813 1.332031zm10.1875 17.808594c8.695313-2.238281 17.949219-2.222656 26.828126.246094 4.972656 17.863281.003906 37.261719-13.246094 50.511719-5.570313 5.566406-12.222656 9.667968-19.390625 12.1875-1.472657.394531-2.929688.835937-4.375 1.328124-8.667969 2.210938-17.894531 2.191407-26.746094-.269531-4.972656-17.859375-.003906-37.261719 13.246094-50.511719 5.597656-5.597656 12.296875-9.710937 19.507812-12.226562 1.40625-.382812 2.796875-.800781 4.175781-1.265625zm-91.867187 62.9375c-7.160156-2.519531-13.808594-6.617187-19.371094-12.179687-13.25-13.25-18.214843-32.648438-13.246093-50.511719 8.875-2.472657 18.128906-2.484375 26.820312-.25 1.382812.46875 2.78125.886719 4.1875 1.269531 7.210938 2.515625 13.90625 6.628906 19.503906 12.226562 9.5 9.5 14.742188 22.164063 15.117188 35.152344v2.785156c-.105469 4.210938-.71875 8.433594-1.871094 12.574219-8.84375 2.460938-18.0625 2.484375-26.726562.273438-1.457032-.492188-2.929688-.9375-4.414063-1.339844zm.007813-82.078125c-7.164063-2.519531-13.816407-6.617188-19.378907-12.183594-13.25-13.25-18.21875-32.648437-13.246093-50.511718 8.875-2.46875 18.132812-2.480469 26.824218-.246094 1.378906.464844 2.773438.886718 4.179688 1.269531 7.210937 2.515625 13.910156 6.628906 19.507812 12.226563 9.5 9.5 14.742188 22.164062 15.113282 35.152343v2.78125c-.105469 4.210938-.714844 8.4375-1.867188 12.578125-8.84375 2.460938-18.066406 2.480469-26.734375.269532-1.453125-.492188-2.921875-.9375-4.398437-1.335938zm118.6875-144.773438c4.972656 17.863282.003906 37.261719-13.246094 50.511719-5.566406 5.566407-12.222656 9.664063-19.386719 12.183594-1.472656.398437-2.933594.839844-4.382813 1.332031-8.667968 2.210938-17.890624 2.191406-26.742187-.269531-4.972656-17.863281-.003906-37.257813 13.246094-50.511719 13.25-13.25 32.652343-18.214844 50.511719-13.246094zm-102.371094-38.203124c0-18.964844 10.335937-36.398438 26.683594-45.605469 16.351562 9.207031 26.6875 26.640625 26.6875 45.605469 0 18.960937-10.335938 36.394531-26.6875 45.601562-3.847657-2.167969-7.355469-4.792969-10.484376-7.785156-.164062-.167969-.320312-.339844-.488281-.507813-.269531-.269531-.550781-.53125-.828125-.796875-9.355468-9.613281-14.882812-22.652344-14.882812-36.511718zm-48.941406 38.203124c17.539062-4.878906 36.554687-.171874 49.78125 12.546876.371093.375.746093.742187 1.125 1.109374 9.25 9.457032 14.351562 21.9375 14.71875 34.746094v2.78125c-.105469 4.210938-.714844 8.433594-1.867188 12.574219-8.84375 2.464844-18.066406 2.484375-26.734375.273437-1.453125-.492187-2.921875-.9375-4.398437-1.335937-7.164063-2.519531-13.816407-6.617187-19.378907-12.183594-13.25-13.25-18.21875-32.648437-13.246093-50.511719zm63.757812 310c-17.863281 4.972657-37.261719.003907-50.511719-13.246093-13.25-13.253907-18.21875-32.652344-13.246093-50.515625 8.878906-2.46875 18.132812-2.480469 26.828124-.246094 1.378907.464844 2.769532.886719 4.167969 1.265625 7.214844 2.515625 13.914063 6.628906 19.515625 12.230469 9.5 9.5 14.742188 22.164062 15.113282 35.15625v2.765625c-.101563 4.214843-.714844 8.445312-1.867188 12.589843zm74.308594-13.246093c-13.25 13.25-32.648438 18.214843-50.511719 13.246093-4.96875-17.863281-.003906-37.261718 13.246094-50.511718 5.597656-5.597656 12.296875-9.710938 19.507812-12.226563 1.40625-.382812 2.796875-.804687 4.179688-1.269531 8.691406-2.234375 17.949219-2.222656 26.824219.246094 4.972656 17.863281.003906 37.261718-13.246094 50.515625zm0 0"/><path d="m153.546875 47c5.519531 0 10-4.476562 10-10v-26.996094c0-5.523437-4.480469-9.99999975-10-9.99999975-5.523437 0-10 4.47656275-10 9.99999975v26.996094c0 5.523438 4.476563 10 10 10zm0 0"/><path d="m153.546875 59.660156c-2.640625 0-5.207031 1.070313-7.070313 2.929688-1.867187 1.859375-2.929687 4.441406-2.929687 7.070312s1.0625 5.210938 2.929687 7.070313c1.863282 1.859375 4.441407 2.929687 7.070313 2.929687 2.632813 0 5.210937-1.070312 7.070313-2.929687 1.859374-1.859375 2.929687-4.441407 2.929687-7.070313s-1.070313-5.210937-2.929687-7.070312c-1.859376-1.859375-4.4375-2.929688-7.070313-2.929688zm0 0"/><path d="m41.546875 74c5.519531 0 10-4.476562 10-10v-53.996094c0-5.523437-4.480469-9.99999975-10-9.99999975-5.523437 0-10 4.47656275-10 9.99999975v53.996094c0 5.523438 4.476563 10 10 10zm0 0"/><path d="m390.710938 74c5.523437 0 10-4.476562 10-10v-53.996094c0-5.523437-4.476563-9.99999975-10-9.99999975-5.523438 0-10 4.47656275-10 9.99999975v53.996094c0 5.523438 4.476562 10 10 10zm0 0"/><path d="m278.710938 74c5.523437 0 10-4.476562 10-10v-53.996094c0-5.523437-4.476563-9.99999975-10-9.99999975-5.523438 0-10 4.47656275-10 9.99999975v53.996094c0 5.523438 4.476562 10 10 10zm0 0"/><path d="m97.546875 40.332031c5.519531 0 10-4.476562 10-10v-20.332031c0-5.523438-4.480469-10-10-10-5.523437 0-10 4.476562-10 10v20.332031c0 5.523438 4.476563 10 10 10zm0 0"/><path d="m334.710938 40.332031c5.523437 0 10-4.476562 10-10v-20.332031c0-5.523438-4.476563-10-10-10-5.523438 0-10 4.476562-10 10v20.332031c0 5.523438 4.476562 10 10 10zm0 0"/></svg>